<svg data-v-0dd9719b="" version="1.0" xmlns="http://www.w3.org/2000/svg" xmlns:xlink="http://www.w3.org/1999/xlink" width="100%" height="100%" viewBox="0 0 340.000000 250.000000" preserveAspectRatio="xMidYMid meet" color-interpolation-filters="sRGB" style="margin: auto;"> <rect data-v-0dd9719b="" x="0" y="0" width="100%" height="100%" fill="#fff" fill-opacity="1" class="background"></rect> <rect data-v-0dd9719b="" x="0" y="0" width="100%" height="100%" fill="url(#watermark)" fill-opacity="1" class="watermarklayer"></rect> <g data-v-0dd9719b="" fill="#e2a171" class="icon-text-wrapper icon-svg-group iconsvg" transform="translate(48.81999969482422,95)"><g class="iconsvg-imagesvg" transform="translate(0,0)"><g><rect fill="#e2a171" fill-opacity="0" stroke-width="2" x="0" y="0" width="60" height="60" class="image-rect"></rect> <svg x="0" y="0" width="60" height="60" filtersec="colorsb2466809132" class="image-svg-svg primary" style="overflow: visible;"><svg xmlns="http://www.w3.org/2000/svg" viewBox="0 0 293.45001220703125 293.45001220703125"><g><g fill="#e2a171"><path d="M99.11 119.24c9.57 0 18.89-2.38 29.14-7.47a136.75 136.75 0 0 1 12.07 17.39c-8.79 26.1-13.63 60.27-13.63 96.43a3.21 3.21 0 0 0 3.21 3.21h33.72a3.21 3.21 0 0 0 3.22-3.21 3.44 3.44 0 0 0 0-.46c0-43.6-5.7-71.77-19.46-96.62a125.37 125.37 0 0 1 9.62-21.26c10.76 6.42 22.77 12 37.36 12 19.77 0 33.58-9.18 33.58-22.32S214.15 74.6 194.38 74.6c-15.33 0-28.57 8-39.4 23.84-2.17-1.39-4.35-2.82-6.48-4.21-14.73-9.65-30-19.63-49.39-19.63-19.76 0-33.57 9.18-33.57 22.32s13.81 22.32 33.57 22.32zM194.38 81c15.73 0 27.15 6.68 27.15 15.89s-11.42 15.89-27.15 15.89c-13 0-24-5.09-33.92-11C170 88 181.39 81 194.38 81zm-34 141.35h-27.25c.25-31.65 4.27-61.52 11.43-85.34 10.87 22.07 15.56 47.64 15.81 85.37zM99.11 81c17.51 0 31.29 9 45.87 18.58 2.15 1.4 4.35 2.85 6.57 4.26a125.22 125.22 0 0 0-8.41 17.55 147.79 147.79 0 0 0-11.59-15.76 3.23 3.23 0 0 0-4-.78c-10.22 5.41-19.26 7.93-28.47 7.93-15.7.03-27.08-6.65-27.08-15.86S83.38 81 99.11 81zM66.26 19.89a3.28 3.28 0 0 0 1.29-.27c20.24-8.88 46.13-13.19 79.18-13.19s58.93 4.31 79.17 13.19a3.22 3.22 0 1 0 2.58-5.89C207.42 4.49 180.67 0 146.73 0S86 4.49 65 13.73a3.22 3.22 0 0 0 1.29 6.16zM13.74 228.49a3.21 3.21 0 0 0 2.94 1.92 3.28 3.28 0 0 0 1.29-.27 3.21 3.21 0 0 0 1.65-4.24c-8.87-20.23-13.19-46.13-13.19-79.18s4.31-58.92 13.19-79.16A3.22 3.22 0 0 0 13.73 65C4.49 86.05 0 112.79 0 146.72s4.5 60.7 13.74 81.77zM273.82 225.9a3.22 3.22 0 1 0 5.89 2.58c9.23-21 13.72-47.73 13.74-81.62v-.14c0-33.94-4.45-60.72-13.72-81.72a3.22 3.22 0 0 0-5.89 2.58c8.86 20.2 13.17 46.05 13.18 79v.14c-.02 33.05-4.32 58.94-13.2 79.18zM225.89 273.83C205.66 282.7 179.76 287 146.72 287s-58.92-4.3-79.16-13.17a3.22 3.22 0 0 0-2.56 5.89c21.07 9.24 47.81 13.73 81.74 13.73s60.69-4.49 81.75-13.73a3.22 3.22 0 0 0-2.58-5.89z"></path><path d="M36.81 9.47C31.53 5.92 26.06 4.42 21 5.15s-9.58 3.68-12.82 8.5a17.28 17.28 0 0 0-2 16.13 15.55 15.55 0 0 0 10.51 9.59 12.62 12.62 0 0 0 2.78.32A11.44 11.44 0 0 0 27 37a12.2 12.2 0 0 0 3.81-10.59 3.22 3.22 0 1 0-6.4.65 5.79 5.79 0 0 1-1.66 5.11 5.1 5.1 0 0 1-4.59 1 9.21 9.21 0 0 1-6-5.68 10.73 10.73 0 0 1 1.36-10.2 12.21 12.21 0 0 1 8.39-5.71c3.47-.5 7.39.64 11.33 3.28 10.64 7.14 10.24 28.47-.93 48.6v.06c-11 19.8-16.22 46.88-16.22 83.2 0 48.46 9.28 80.46 29.17 100.66-15.65-3.31-29.42-.2-35.77 9.25-7.26 10.83-5.62 22.07 4.19 28.64a18 18 0 0 0 10 3.16 16.71 16.71 0 0 0 6.09-1.16 15.56 15.56 0 0 0 9.59-10.52A11.58 11.58 0 0 0 37 266.49a12.17 12.17 0 0 0-10.59-3.81 3.21 3.21 0 0 0 .65 6.39 5.81 5.81 0 0 1 5.11 1.66 5.1 5.1 0 0 1 1 4.6 9.21 9.21 0 0 1-5.68 6 10.77 10.77 0 0 1-10.2-1.33c-6.86-4.61-7.75-11.8-2.44-19.72 7.15-10.64 28.5-10.25 48.62.89 19.8 11 46.91 16.26 83.3 16.26 48.46 0 80.47-9.27 100.67-29.17-3.32 15.66-.21 29.43 9.25 35.78a24.11 24.11 0 0 0 13.31 4.43c6 0 11.47-2.94 15.32-8.68a17.29 17.29 0 0 0 2-16.12A15.55 15.55 0 0 0 276.8 254a11.59 11.59 0 0 0-10.31 2.45 12.17 12.17 0 0 0-3.81 10.59 3.22 3.22 0 0 0 6.4-.65 5.78 5.78 0 0 1 1.66-5.11 5.07 5.07 0 0 1 4.59-1 9.21 9.21 0 0 1 6 5.68 10.72 10.72 0 0 1-1.33 10.2c-4.61 6.86-11.8 7.75-19.72 2.43-10.65-7.15-10.25-28.52.92-48.66 11-19.8 16.21-46.9 16.22-83.32v-.2c0-48.28-9.31-80.18-29.16-100.34a56 56 0 0 0 11.63 1.29c10.62 0 19.42-3.53 24.13-10.55 3.55-5.29 5-10.76 4.32-15.83s-3.68-9.57-8.5-12.81a17.28 17.28 0 0 0-16.13-2A15.55 15.55 0 0 0 254 16.65 11.61 11.61 0 0 0 256.48 27a11.9 11.9 0 0 0 9.09 3.89c.5 0 1 0 1.5-.07a3.22 3.22 0 0 0-.65-6.4 5.81 5.81 0 0 1-5.11-1.66 5.08 5.08 0 0 1-1-4.59 9.19 9.19 0 0 1 5.68-6 10.75 10.75 0 0 1 10.2 1.35 12.22 12.22 0 0 1 5.72 8.38c.5 3.47-.64 7.39-3.29 11.34-7.14 10.65-28.52 10.24-48.66-.92-19.8-11-46.9-16.24-83.25-16.24-48.46 0-80.47 9.28-100.67 29.18 3.34-15.67.23-29.45-9.23-35.79zm109.92 13c35.23 0 61.3 5 80.1 15.41h.06a73.9 73.9 0 0 1 16.36 12.26c18.83 18.86 27.62 49.42 27.66 96.3v.2c0 35.26-5 61.33-15.42 80.14a73.77 73.77 0 0 1-12.29 16.42c-18.89 18.87-49.55 27.65-96.5 27.65-35.22 0-61.29-4.95-80.09-15.4h-.11a73.5 73.5 0 0 1-16.32-12.24c-18.87-18.89-27.66-49.55-27.66-96.5s8.82-77.66 27.73-96.56S99.79 22.5 146.73 22.5z"></path></g></g></svg></svg> <!----></g></g> <g transform="translate(67,5.60999870300293)"><g data-gra="path-name" fill-rule="" class="tp-name iconsvg-namesvg"><g transform="scale(1)"><g><path d="M1.28-42.17L34.92-42.17 34.92-32.43 23.49-32.43 23.49 0.58 12.7 0.58 12.7-32.43 1.28-32.43 1.28-42.17ZM59.52-32.72Q64.39-32.72 66.77-30.16 69.15-27.61 69.15-22.51L69.15-22.51 69.15 0.52 58.88 0.52 58.88-19.9Q58.88-23.2 57.86-24.54 56.85-25.87 54.82-25.87L54.82-25.87Q52.96-25.87 50.58-23.9L50.58-23.9 50.58 0.58 39.79 0.58 39.79-45.01 50.58-45.01 50.58-28.89Q54.47-32.72 59.52-32.72L59.52-32.72ZM91.31-4.64Q95.08-4.64 99.54-8.99L99.54-8.99 103.89-3.07Q101.11-0.46 98.03 0.49 94.96 1.45 90.73 1.45L90.73 1.45Q85.74 1.45 82.02-0.58 78.31-2.61 76.28-6.38 74.25-10.15 74.25-15.31L74.25-15.31Q74.25-20.65 76.25-24.6 78.25-28.54 81.97-30.63 85.68-32.72 90.73-32.72L90.73-32.72Q95.83-32.72 98.82-30.51 101.8-28.31 103.05-24.97 104.3-21.64 104.3-17.98L104.3-17.98Q104.3-14.97 103.6-12.76L103.6-12.76 85.04-12.76Q85.5-8.88 87.07-6.76 88.64-4.64 91.31-4.64L91.31-4.64ZM90.55-26.63Q88.35-26.63 86.98-24.77 85.62-22.91 85.16-19.37L85.16-19.37 95.48-19.37Q95.48-22.45 94.23-24.54 92.99-26.63 90.55-26.63L90.55-26.63ZM148.68-32.72Q153.61-32.72 155.96-30.16 158.3-27.61 158.3-22.51L158.3-22.51 158.3 0.52 148.1 0.52 148.1-19.9Q148.1-23.2 147.05-24.54 146.01-25.87 143.98-25.87L143.98-25.87Q142-25.87 139.22-23.38L139.22-23.38 139.22-22.51 139.22 0.52 128.95 0.52 128.95-19.9Q128.95-23.2 128.05-24.54 127.15-25.87 125.18-25.87L125.18-25.87Q123.09-25.87 120.08-23.32L120.08-23.32 120.08 0.58 109.87 0.58 109.87-31.9 120.08-31.9 120.08-28.13Q124.08-32.72 129.59-32.72L129.59-32.72Q136.67-32.72 138.52-27.26L138.52-27.26Q142.64-32.72 148.68-32.72L148.68-32.72ZM171.07-36.14Q168.75-36.14 167.09-37.79 165.44-39.45 165.44-41.77L165.44-41.77Q165.44-44.09 167.09-45.71 168.75-47.33 171.07-47.33L171.07-47.33Q173.39-47.33 175.01-45.71 176.64-44.09 176.64-41.77L176.64-41.77Q176.64-39.45 175.01-37.79 173.39-36.14 171.07-36.14L171.07-36.14ZM176.17 0.58L165.96 0.58 165.96-31.61 176.17-31.61 176.17 0.58Z" transform="translate(-1.2799999713897705, 47.33000183105469)"></path></g> <!----> <!----> <!----> <!----> <!----> <!----> <!----></g></g> <!----></g></g><defs v-gra="od"></defs></svg>